<svg width="16" height="16" viewBox="0 0 16 16" fill="none" xmlns="http://www.w3.org/2000/svg">
<path d="M8 16C12.4183 16 16 12.4183 16 8C16 3.58172 12.4183 0 8 0C3.58172 0 0 3.58172 0 8C0 12.4183 3.58172 16 8 16Z" fill="#CFD7DF"/>
<path d="M6.06001 6.00014C6.21675 5.55458 6.52611 5.17887 6.93332 4.93956C7.34052 4.70024 7.81928 4.61276 8.2848 4.69261C8.75032 4.77246 9.17256 5.01449 9.47673 5.37582C9.7809 5.73716 9.94738 6.19448 9.94668 6.6668C9.94668 8.00014 7.94668 8.6668 7.94668 8.6668" stroke="white" stroke-width="2" stroke-linecap="round" stroke-linejoin="round"/>
<path d="M8 11.3333H8.00708" stroke="white" stroke-width="2" stroke-linecap="round" stroke-linejoin="round"/>
</svg>
